# xmcd
# 
# Track frame offsets:
#     150
#     22102
#     44070
#     66092
# 
# Disc length: 1168
# 
# Revision: 2
# Processed by: cddbd v1.5.2PL0 Copyright (c) Steve Scherf et al.
# Submitted via: fre:ac v1.0.17
# 
DISCID=36048e04
DTITLE=大黒摩季 - いちばん近くにいてね
DYEAR=1995
DGENRE=J-Pop
TTITLE0=いちばん近くにいてね
TTITLE1=El amor es ciego 〜恋は盲目〜
TTITLE2=いちばん近くにいてね(オリジナル・カラオケ)
TTITLE3=El amor es ciego 〜恋は盲目〜(オリジナル・カラオケ)
EXTD=
EXTT0=
EXTT1=
EXTT2=
EXTT3=
PLAYORDER=
